<?xml version="1.0" encoding="UTF-8"?>
<svg width="16px" height="10px" viewBox="0 0 16 10" version="1.1" xmlns="http://www.w3.org/2000/svg" xmlns:xlink="http://www.w3.org/1999/xlink">
    <!-- Generator: Sketch 43.2 (39069) - http://www.bohemiancoding.com/sketch -->
    <title>icon/link</title>
    <desc>Created with Sketch.</desc>
    <defs></defs>
    <g id="Board" stroke="none" stroke-width="1" fill="none" fill-rule="evenodd">
        <g id="0.21-free-add-create-link" transform="translate(-997.000000, -550.000000)">
            <g id="modal" transform="translate(981.000000, 376.000000)">
                <g id="content" transform="translate(12.000000, 50.000000)">
                    <g id="icon/link" transform="translate(0.000000, 117.000000)">
                        <rect id="bounds" x="0" y="0" width="24" height="24"></rect>
                        <g stroke-width="1" fill-rule="evenodd" transform="translate(4.000000, 7.000000)" id="Combined-Shape" fill="#838C91">
                            <path d="M5,5 C5,4.44771525 5.45097518,4 5.99077797,4 L10.009222,4 C10.5564136,4 11,4.44386482 11,5 C11,5.55228475 10.5490248,6 10.009222,6 L5.99077797,6 C5.44358641,6 5,5.55613518 5,5 Z M16,0.995397568 L16,9.00460243 C16,9.5443356 15.5564136,10 15.009222,10 L10.990778,10 C10.4509752,10 10,9.55228475 10,9 C10,8.44386482 10.4519098,8 11.0093689,8 L14,8 L14,2 L11.0093689,2 C10.4433532,2 10,1.55228475 10,1 C10,0.443864822 10.4435864,0 10.990778,0 L15.009222,0 C15.5490248,0 16,0.445654671 16,0.995397568 Z M0,0.995397568 C0,0.445654671 0.45097518,0 0.990777969,0 L5.00922203,0 C5.55641359,0 6,0.443864822 6,1 C6,1.55228475 5.55664682,2 4.9906311,2 L2,2 L2,8 L4.9906311,8 C5.54809015,8 6,8.44386482 6,9 C6,9.55228475 5.54902482,10 5.00922203,10 L0.990777969,10 C0.443586406,10 0,9.5443356 0,9.00460243 L0,0.995397568 Z"></path>
                        </g>
                    </g>
                </g>
            </g>
        </g>
    </g>
</svg>