<svg width="24" height="24" role="presentation" focusable="false" viewBox="0 0 24 24" xmlns="http://www.w3.org/2000/svg"><path fill-rule="evenodd" clip-rule="evenodd" d="M13.7676 5.53486C13.0164 4.1159 10.9837 4.1159 10.2324 5.53487L4.55426 16.2603C3.84908 17.5923 4.81469 19.1961 6.32184 19.1961H17.6782C19.1854 19.1961 20.151 17.5923 19.4458 16.2603L13.7676 5.53486ZM12 7C12.5523 7 13 7.44772 13 8V13C13 13.5523 12.5523 14 12 14C11.4477 14 11 13.5523 11 13V8C11 7.44772 11.4477 7 12 7ZM13 16C13 16.5523 12.5523 17 12 17C11.4477 17 11 16.5523 11 16C11 15.4477 11.4477 15 12 15C12.5523 15 13 15.4477 13 16Z" fill="currentColor"></path></svg>
